<svg xmlns="http://www.w3.org/2000/svg" xmlns:xlink="http://www.w3.org/1999/xlink" width="32" zoomAndPan="magnify" viewBox="0 0 375 374.999991" height="32" preserveAspectRatio="xMidYMid meet" version="1.0"><path fill="#003b1f" d="M 258.480469 223.660156 C 261.335938 221.164062 264.046875 218.523438 266.617188 215.738281 C 269.1875 212.953125 271.601562 210.035156 273.855469 206.988281 C 276.113281 203.945312 278.199219 200.785156 280.117188 197.515625 C 282.035156 194.246094 283.769531 190.882812 285.324219 187.425781 C 286.882812 183.96875 288.246094 180.4375 289.421875 176.835938 C 290.601562 173.230469 291.578125 169.574219 292.363281 165.867188 C 293.144531 162.15625 293.726562 158.417969 294.109375 154.648438 C 294.488281 150.875 294.667969 147.09375 294.644531 143.304688 C 294.863281 137.003906 294.417969 130.753906 293.304688 124.554688 C 293.304688 119.195312 294.644531 112.5 294.644531 107.144531 C 294.644531 105.390625 294.601562 103.636719 294.515625 101.886719 C 294.425781 100.132812 294.296875 98.386719 294.125 96.640625 C 293.953125 94.894531 293.742188 93.15625 293.484375 91.421875 C 293.226562 89.6875 292.925781 87.960938 292.585938 86.242188 C 292.242188 84.519531 291.859375 82.808594 291.433594 81.109375 C 291.003906 79.410156 290.539062 77.71875 290.027344 76.039062 C 289.519531 74.363281 288.96875 72.699219 288.378906 71.046875 C 287.789062 69.398438 287.15625 67.761719 286.488281 66.140625 C 285.816406 64.519531 285.105469 62.917969 284.355469 61.332031 C 283.605469 59.75 282.816406 58.183594 281.992188 56.636719 C 281.164062 55.089844 280.300781 53.5625 279.398438 52.058594 C 278.496094 50.554688 277.558594 49.074219 276.585938 47.617188 C 275.613281 46.160156 274.601562 44.726562 273.558594 43.316406 C 272.511719 41.910156 271.433594 40.527344 270.324219 39.171875 C 269.210938 37.816406 268.066406 36.488281 266.886719 35.191406 C 265.710938 33.890625 264.5 32.621094 263.261719 31.382812 C 262.023438 30.140625 260.75 28.933594 259.453125 27.753906 C 258.152344 26.578125 256.824219 25.433594 255.46875 24.320312 C 254.113281 23.207031 252.734375 22.128906 251.324219 21.085938 C 249.917969 20.039062 248.484375 19.03125 247.023438 18.058594 C 245.566406 17.082031 244.085938 16.144531 242.582031 15.242188 C 241.078125 14.34375 239.554688 13.476562 238.007812 12.652344 C 236.460938 11.824219 234.894531 11.035156 233.308594 10.285156 C 231.722656 9.539062 230.121094 8.828125 228.5 8.15625 C 226.882812 7.484375 225.246094 6.855469 223.59375 6.261719 C 221.945312 5.671875 220.28125 5.121094 218.601562 4.613281 C 216.925781 4.105469 215.234375 3.636719 213.535156 3.210938 C 211.832031 2.785156 210.121094 2.402344 208.402344 2.058594 C 206.683594 1.714844 204.957031 1.417969 203.222656 1.160156 C 201.488281 0.902344 199.746094 0.6875 198 0.515625 C 196.257812 0.34375 194.507812 0.214844 192.757812 0.128906 C 191.007812 0.0429688 189.253906 0 187.5 0 C 185.746094 0 183.992188 0.0429688 182.242188 0.128906 C 180.492188 0.214844 178.742188 0.34375 177 0.515625 C 175.253906 0.6875 173.511719 0.902344 171.777344 1.160156 C 170.042969 1.417969 168.316406 1.714844 166.597656 2.058594 C 164.878906 2.402344 163.167969 2.785156 161.464844 3.210938 C 159.765625 3.636719 158.074219 4.105469 156.398438 4.613281 C 154.71875 5.121094 153.054688 5.671875 151.40625 6.261719 C 149.753906 6.855469 148.117188 7.484375 146.5 8.15625 C 144.878906 8.828125 143.277344 9.539062 141.691406 10.285156 C 140.105469 11.035156 138.539062 11.824219 136.992188 12.652344 C 135.445312 13.476562 133.921875 14.34375 132.417969 15.242188 C 130.914062 16.144531 129.433594 17.082031 127.972656 18.058594 C 126.515625 19.03125 125.082031 20.039062 123.675781 21.085938 C 122.265625 22.128906 120.882812 23.207031 119.527344 24.320312 C 118.171875 25.433594 116.847656 26.578125 115.546875 27.753906 C 114.246094 28.933594 112.976562 30.140625 111.738281 31.382812 C 110.5 32.621094 109.289062 33.890625 108.113281 35.191406 C 106.933594 36.488281 105.789062 37.816406 104.675781 39.171875 C 103.566406 40.527344 102.488281 41.910156 101.441406 43.316406 C 100.398438 44.726562 99.386719 46.160156 98.414062 47.617188 C 97.441406 49.074219 96.503906 50.554688 95.601562 52.058594 C 94.699219 53.5625 93.835938 55.089844 93.007812 56.636719 C 92.183594 58.183594 91.394531 59.75 90.644531 61.332031 C 89.894531 62.917969 89.183594 64.519531 88.511719 66.140625 C 87.84375 67.761719 87.210938 69.398438 86.621094 71.046875 C 86.03125 72.699219 85.480469 74.363281 84.96875 76.039062 C 84.460938 77.71875 83.992188 79.410156 83.566406 81.109375 C 83.140625 82.808594 82.757812 84.519531 82.414062 86.242188 C 82.074219 87.960938 81.773438 89.6875 81.515625 91.421875 C 81.257812 93.15625 81.046875 94.894531 80.875 96.640625 C 80.703125 98.386719 80.570312 100.132812 80.484375 101.886719 C 80.398438 103.636719 80.355469 105.390625 80.355469 107.144531 C 80.355469 112.5 81.695312 119.195312 81.695312 124.554688 C 81.695312 129.910156 80.355469 136.605469 80.355469 143.304688 C 80.394531 147.085938 80.628906 150.855469 81.054688 154.609375 C 81.480469 158.367188 82.101562 162.09375 82.914062 165.785156 C 83.726562 169.480469 84.726562 173.121094 85.914062 176.710938 C 87.101562 180.300781 88.472656 183.820312 90.023438 187.269531 C 91.578125 190.714844 93.300781 194.074219 95.199219 197.34375 C 97.097656 200.617188 99.160156 203.777344 101.386719 206.835938 C 103.613281 209.894531 105.988281 212.828125 108.519531 215.640625 C 111.046875 218.449219 113.714844 221.125 116.519531 223.660156 C 114.019531 225.003906 111.566406 226.429688 109.164062 227.941406 C 106.757812 229.449219 104.40625 231.035156 102.109375 232.699219 C 99.8125 234.367188 97.570312 236.105469 95.390625 237.921875 C 93.207031 239.738281 91.089844 241.625 89.035156 243.582031 C 86.980469 245.539062 84.992188 247.5625 83.074219 249.652344 C 81.152344 251.746094 79.304688 253.898438 77.53125 256.109375 C 75.753906 258.324219 74.054688 260.59375 72.429688 262.921875 C 70.804688 265.25 69.261719 267.628906 67.796875 270.0625 C 66.332031 272.492188 64.953125 274.96875 63.652344 277.492188 C 62.355469 280.015625 61.140625 282.582031 60.015625 285.1875 C 58.886719 287.789062 57.847656 290.429688 56.898438 293.105469 C 55.945312 295.777344 55.085938 298.480469 54.316406 301.214844 C 53.546875 303.945312 52.871094 306.699219 52.285156 309.476562 C 51.699219 312.253906 51.207031 315.046875 50.808594 317.859375 C 50.410156 320.667969 50.109375 323.488281 49.898438 326.320312 C 49.6875 329.148438 49.574219 331.984375 49.554688 334.820312 L 49.554688 342.855469 C 49.554688 343.910156 49.605469 344.960938 49.707031 346.007812 C 49.8125 347.054688 49.964844 348.09375 50.171875 349.128906 C 50.375 350.160156 50.632812 351.179688 50.9375 352.1875 C 51.242188 353.195312 51.597656 354.183594 52 355.15625 C 52.402344 356.128906 52.851562 357.082031 53.347656 358.007812 C 53.84375 358.9375 54.386719 359.839844 54.96875 360.714844 C 55.554688 361.589844 56.183594 362.433594 56.851562 363.25 C 57.515625 364.0625 58.222656 364.839844 58.96875 365.585938 C 59.710938 366.328125 60.492188 367.035156 61.304688 367.703125 C 62.117188 368.371094 62.964844 369 63.839844 369.582031 C 64.714844 370.167969 65.617188 370.707031 66.542969 371.203125 C 67.472656 371.699219 68.421875 372.152344 69.394531 372.554688 C 70.367188 372.957031 71.359375 373.308594 72.367188 373.617188 C 73.375 373.921875 74.394531 374.175781 75.425781 374.382812 C 76.457031 374.585938 77.5 374.742188 78.546875 374.84375 C 79.59375 374.949219 80.644531 375 81.695312 375 L 293.304688 375 C 294.355469 375 295.40625 374.949219 296.453125 374.84375 C 297.5 374.742188 298.542969 374.585938 299.574219 374.382812 C 300.605469 374.175781 301.625 373.921875 302.632812 373.617188 C 303.640625 373.308594 304.632812 372.957031 305.605469 372.554688 C 306.578125 372.152344 307.527344 371.699219 308.457031 371.203125 C 309.382812 370.707031 310.285156 370.167969 311.160156 369.582031 C 312.035156 369 312.882812 368.371094 313.695312 367.703125 C 314.507812 367.035156 315.289062 366.328125 316.03125 365.585938 C 316.777344 364.839844 317.484375 364.0625 318.148438 363.25 C 318.816406 362.433594 319.445312 361.589844 320.03125 360.714844 C 320.613281 359.839844 321.15625 358.9375 321.652344 358.007812 C 322.148438 357.082031 322.597656 356.128906 323 355.15625 C 323.402344 354.183594 323.757812 353.195312 324.0625 352.1875 C 324.367188 351.179688 324.625 350.160156 324.828125 349.128906 C 325.035156 348.09375 325.1875 347.054688 325.292969 346.007812 C 325.394531 344.960938 325.445312 343.910156 325.445312 342.855469 L 325.445312 334.820312 C 325.425781 331.984375 325.3125 329.148438 325.101562 326.320312 C 324.890625 323.488281 324.589844 320.667969 324.191406 317.859375 C 323.792969 315.046875 323.300781 312.253906 322.714844 309.476562 C 322.128906 306.699219 321.453125 303.945312 320.683594 301.214844 C 319.914062 298.480469 319.050781 295.777344 318.101562 293.105469 C 317.152344 290.429688 316.113281 287.789062 314.984375 285.1875 C 313.859375 282.582031 312.644531 280.015625 311.347656 277.492188 C 310.046875 274.96875 308.667969 272.492188 307.203125 270.0625 C 305.738281 267.628906 304.195312 265.25 302.570312 262.921875 C 300.945312 260.59375 299.246094 258.324219 297.46875 256.109375 C 295.695312 253.898438 293.847656 251.746094 291.925781 249.652344 C 290.007812 247.5625 288.019531 245.539062 285.964844 243.582031 C 283.910156 241.625 281.792969 239.738281 279.609375 237.921875 C 277.429688 236.105469 275.1875 234.367188 272.890625 232.699219 C 270.59375 231.035156 268.242188 229.449219 265.835938 227.941406 C 263.433594 226.429688 260.980469 225.003906 258.480469 223.660156 Z M 108.480469 154.019531 C 109.671875 153.480469 110.726562 152.75 111.648438 151.828125 C 112.574219 150.90625 113.300781 149.851562 113.839844 148.660156 C 114.554688 146.816406 115.339844 145.003906 116.191406 143.21875 C 117.042969 141.433594 117.960938 139.6875 118.941406 137.96875 C 119.925781 136.253906 120.972656 134.578125 122.082031 132.941406 C 123.1875 131.304688 124.359375 129.710938 125.585938 128.164062 C 126.816406 126.613281 128.101562 125.113281 129.441406 123.660156 C 130.78125 122.207031 132.175781 120.808594 133.621094 119.457031 C 135.066406 118.109375 136.5625 116.820312 138.105469 115.582031 C 139.648438 114.347656 141.238281 113.171875 142.867188 112.054688 C 144.5 110.9375 146.171875 109.882812 147.882812 108.890625 C 149.59375 107.902344 151.335938 106.976562 153.117188 106.113281 C 154.898438 105.253906 156.707031 104.460938 158.546875 103.738281 C 160.386719 103.011719 162.25 102.359375 164.140625 101.773438 C 166.027344 101.191406 167.9375 100.675781 169.863281 100.234375 C 171.792969 99.792969 173.730469 99.425781 175.6875 99.128906 C 177.640625 98.835938 179.605469 98.613281 181.578125 98.464844 C 183.546875 98.316406 185.523438 98.242188 187.5 98.242188 C 189.476562 98.242188 191.453125 98.316406 193.421875 98.464844 C 195.394531 98.613281 197.359375 98.835938 199.3125 99.128906 C 201.265625 99.425781 203.207031 99.792969 205.136719 100.234375 C 207.0625 100.675781 208.972656 101.191406 210.859375 101.773438 C 212.75 102.359375 214.613281 103.011719 216.453125 103.738281 C 218.292969 104.460938 220.101562 105.253906 221.882812 106.113281 C 223.664062 106.976562 225.40625 107.902344 227.117188 108.890625 C 228.828125 109.882812 230.5 110.9375 232.132812 112.054688 C 233.761719 113.171875 235.351562 114.347656 236.894531 115.582031 C 238.4375 116.820312 239.933594 118.109375 241.378906 119.457031 C 242.824219 120.808594 244.21875 122.207031 245.558594 123.660156 C 246.898438 125.113281 248.183594 126.613281 249.414062 128.164062 C 250.640625 129.710938 251.8125 131.304688 252.917969 132.941406 C 254.027344 134.578125 255.074219 136.253906 256.058594 137.96875 C 257.039062 139.6875 257.957031 141.433594 258.808594 143.21875 C 259.660156 145.003906 260.445312 146.816406 261.160156 148.660156 C 262.5 151.339844 265.179688 152.679688 266.519531 154.019531 C 266.519531 155.3125 266.484375 156.601562 266.421875 157.894531 C 266.359375 159.1875 266.265625 160.476562 266.136719 161.761719 C 266.011719 163.050781 265.851562 164.332031 265.664062 165.613281 C 265.472656 166.890625 265.25 168.164062 265 169.433594 C 264.746094 170.703125 264.464844 171.964844 264.148438 173.21875 C 263.835938 174.472656 263.492188 175.71875 263.117188 176.957031 C 262.738281 178.191406 262.335938 179.421875 261.898438 180.636719 C 261.464844 181.855469 260.996094 183.0625 260.503906 184.257812 C 260.007812 185.453125 259.484375 186.632812 258.929688 187.800781 C 258.378906 188.972656 257.796875 190.125 257.1875 191.265625 C 256.578125 192.40625 255.941406 193.53125 255.277344 194.640625 C 254.609375 195.75 253.917969 196.84375 253.199219 197.917969 C 252.484375 198.992188 251.738281 200.050781 250.96875 201.089844 C 250.199219 202.128906 249.402344 203.148438 248.582031 204.144531 C 247.761719 205.144531 246.917969 206.125 246.046875 207.082031 C 245.179688 208.042969 244.289062 208.976562 243.375 209.890625 C 242.460938 210.804688 241.523438 211.699219 240.566406 212.566406 C 239.605469 213.433594 238.628906 214.277344 237.628906 215.097656 C 236.628906 215.917969 235.609375 216.714844 234.570312 217.484375 C 233.53125 218.257812 232.476562 219 231.398438 219.71875 C 230.324219 220.4375 229.234375 221.128906 228.125 221.792969 C 227.015625 222.457031 225.890625 223.097656 224.75 223.707031 C 223.609375 224.316406 222.453125 224.894531 221.285156 225.449219 C 220.117188 226.003906 218.933594 226.527344 217.738281 227.019531 C 216.542969 227.515625 215.335938 227.980469 214.121094 228.417969 C 212.902344 228.851562 211.675781 229.257812 210.4375 229.632812 C 209.199219 230.007812 207.953125 230.351562 206.699219 230.667969 C 205.445312 230.980469 204.183594 231.265625 202.914062 231.515625 C 201.648438 231.769531 200.375 231.992188 199.09375 232.179688 C 197.816406 232.371094 196.53125 232.527344 195.246094 232.65625 C 193.957031 232.78125 192.667969 232.878906 191.378906 232.941406 C 190.085938 233.003906 188.792969 233.035156 187.5 233.035156 C 186.207031 233.035156 184.914062 233.003906 183.621094 232.941406 C 182.332031 232.878906 181.042969 232.78125 179.753906 232.65625 C 178.46875 232.527344 177.183594 232.371094 175.90625 232.179688 C 174.625 231.992188 173.351562 231.769531 172.085938 231.515625 C 170.816406 231.265625 169.554688 230.980469 168.300781 230.667969 C 167.046875 230.351562 165.800781 230.007812 164.5625 229.632812 C 163.324219 229.257812 162.097656 228.851562 160.878906 228.417969 C 159.660156 227.980469 158.457031 227.515625 157.261719 227.019531 C 156.066406 226.527344 154.882812 226.003906 153.714844 225.449219 C 152.546875 224.894531 151.390625 224.316406 150.25 223.707031 C 149.109375 223.097656 147.984375 222.457031 146.875 221.792969 C 145.765625 221.128906 144.675781 220.4375 143.601562 219.71875 C 142.523438 219 141.46875 218.257812 140.429688 217.484375 C 139.390625 216.714844 138.371094 215.917969 137.371094 215.097656 C 136.371094 214.277344 135.394531 213.433594 134.433594 212.566406 C 133.476562 211.699219 132.539062 210.804688 131.625 209.890625 C 130.710938 208.976562 129.820312 208.042969 128.953125 207.082031 C 128.082031 206.125 127.238281 205.144531 126.417969 204.144531 C 125.597656 203.148438 124.800781 202.128906 124.03125 201.089844 C 123.261719 200.050781 122.515625 198.992188 121.800781 197.917969 C 121.082031 196.84375 120.390625 195.75 119.722656 194.640625 C 119.058594 193.53125 118.421875 192.40625 117.8125 191.265625 C 117.203125 190.125 116.621094 188.972656 116.070312 187.800781 C 115.515625 186.632812 114.992188 185.453125 114.496094 184.257812 C 114.003906 183.0625 113.535156 181.855469 113.101562 180.636719 C 112.664062 179.421875 112.261719 178.191406 111.882812 176.957031 C 111.507812 175.71875 111.164062 174.472656 110.851562 173.21875 C 110.535156 171.964844 110.253906 170.703125 110 169.433594 C 109.75 168.164062 109.527344 166.890625 109.335938 165.613281 C 109.148438 164.332031 108.988281 163.050781 108.863281 161.761719 C 108.734375 160.476562 108.640625 159.1875 108.578125 157.894531 C 108.515625 156.601562 108.480469 155.3125 108.480469 154.019531 Z M 187.5 250.445312 C 195.097656 250.324219 202.617188 249.472656 210.050781 247.898438 C 217.488281 246.320312 224.703125 244.042969 231.695312 241.070312 C 238.769531 243.386719 245.46875 246.511719 251.785156 250.445312 C 250.875 251.71875 249.929688 252.964844 248.945312 254.179688 C 247.960938 255.398438 246.941406 256.585938 245.886719 257.742188 C 244.832031 258.898438 243.746094 260.019531 242.625 261.113281 C 241.503906 262.203125 240.351562 263.261719 239.167969 264.285156 C 237.984375 265.308594 236.769531 266.292969 235.527344 267.246094 C 234.285156 268.195312 233.015625 269.109375 231.71875 269.984375 C 230.421875 270.863281 229.101562 271.699219 227.753906 272.496094 C 226.40625 273.292969 225.039062 274.046875 223.648438 274.765625 C 222.253906 275.480469 220.84375 276.152344 219.414062 276.785156 C 217.980469 277.417969 216.53125 278.007812 215.066406 278.554688 C 213.597656 279.097656 212.117188 279.601562 210.621094 280.058594 C 209.125 280.515625 207.617188 280.929688 206.09375 281.296875 C 204.574219 281.664062 203.042969 281.988281 201.503906 282.265625 C 199.964844 282.542969 198.417969 282.773438 196.863281 282.960938 C 195.308594 283.144531 193.753906 283.285156 192.191406 283.378906 C 190.628906 283.46875 189.066406 283.515625 187.5 283.515625 C 185.933594 283.515625 184.371094 283.46875 182.808594 283.378906 C 181.246094 283.285156 179.691406 283.144531 178.136719 282.960938 C 176.582031 282.773438 175.035156 282.542969 173.496094 282.265625 C 171.957031 281.988281 170.425781 281.664062 168.90625 281.296875 C 167.382812 280.929688 165.875 280.515625 164.378906 280.058594 C 162.882812 279.601562 161.402344 279.097656 159.933594 278.554688 C 158.46875 278.007812 157.019531 277.417969 155.585938 276.785156 C 154.15625 276.152344 152.746094 275.480469 151.351562 274.765625 C 149.960938 274.046875 148.59375 273.292969 147.246094 272.496094 C 145.898438 271.699219 144.578125 270.863281 143.28125 269.984375 C 141.984375 269.109375 140.714844 268.195312 139.472656 267.246094 C 138.230469 266.292969 137.015625 265.308594 135.832031 264.285156 C 134.648438 263.261719 133.496094 262.203125 132.375 261.113281 C 131.253906 260.019531 130.167969 258.898438 129.113281 257.742188 C 128.058594 256.585938 127.039062 255.398438 126.054688 254.179688 C 125.070312 252.964844 124.125 251.71875 123.214844 250.445312 C 129.53125 246.511719 136.230469 243.386719 143.304688 241.070312 C 150.296875 244.042969 157.511719 246.320312 164.949219 247.898438 C 172.382812 249.472656 179.902344 250.324219 187.5 250.445312 Z M 298.660156 342.855469 C 298.660156 343.207031 298.625 343.558594 298.558594 343.902344 C 298.488281 344.246094 298.386719 344.582031 298.253906 344.90625 C 298.117188 345.230469 297.953125 345.539062 297.757812 345.832031 C 297.5625 346.125 297.339844 346.394531 297.089844 346.644531 C 296.84375 346.894531 296.574219 347.117188 296.28125 347.3125 C 295.988281 347.507812 295.679688 347.671875 295.355469 347.804688 C 295.027344 347.941406 294.695312 348.042969 294.347656 348.109375 C 294.003906 348.179688 293.65625 348.214844 293.304688 348.214844 L 81.695312 348.214844 C 81.34375 348.214844 80.996094 348.179688 80.652344 348.109375 C 80.304688 348.042969 79.972656 347.941406 79.644531 347.804688 C 79.320312 347.671875 79.011719 347.507812 78.71875 347.3125 C 78.425781 347.117188 78.15625 346.894531 77.910156 346.644531 C 77.660156 346.394531 77.4375 346.125 77.242188 345.832031 C 77.046875 345.539062 76.882812 345.230469 76.746094 344.90625 C 76.613281 344.582031 76.511719 344.246094 76.441406 343.902344 C 76.375 343.558594 76.339844 343.207031 76.339844 342.855469 L 76.339844 334.820312 C 76.359375 328.703125 76.929688 322.640625 78.042969 316.625 C 79.160156 310.609375 80.804688 304.746094 82.976562 299.027344 C 85.148438 293.308594 87.816406 287.832031 90.976562 282.59375 C 94.136719 277.355469 97.738281 272.445312 101.785156 267.855469 C 103.984375 270.660156 106.316406 273.355469 108.773438 275.933594 C 111.234375 278.515625 113.808594 280.972656 116.503906 283.304688 C 119.199219 285.636719 122 287.835938 124.910156 289.898438 C 127.816406 291.960938 130.8125 293.878906 133.90625 295.65625 C 136.996094 297.429688 140.167969 299.050781 143.414062 300.523438 C 146.660156 301.992188 149.972656 303.300781 153.34375 304.453125 C 156.71875 305.605469 160.140625 306.589844 163.609375 307.414062 C 167.074219 308.234375 170.574219 308.890625 174.105469 309.375 L 174.105469 322.769531 C 174.105469 323.648438 174.191406 324.519531 174.363281 325.378906 C 174.535156 326.242188 174.789062 327.082031 175.125 327.894531 C 175.464844 328.707031 175.875 329.476562 176.363281 330.207031 C 176.851562 330.941406 177.40625 331.617188 178.03125 332.238281 C 178.652344 332.859375 179.328125 333.414062 180.058594 333.902344 C 180.789062 334.390625 181.5625 334.804688 182.375 335.140625 C 183.1875 335.476562 184.023438 335.730469 184.886719 335.902344 C 185.75 336.074219 186.621094 336.160156 187.5 336.160156 C 187.953125 336.214844 188.402344 336.242188 188.859375 336.246094 C 189.3125 336.246094 189.765625 336.222656 190.21875 336.175781 C 190.667969 336.125 191.117188 336.050781 191.558594 335.953125 C 192.003906 335.855469 192.441406 335.730469 192.871094 335.582031 C 193.296875 335.433594 193.71875 335.257812 194.128906 335.0625 C 194.539062 334.867188 194.9375 334.648438 195.320312 334.40625 C 195.707031 334.167969 196.074219 333.902344 196.429688 333.621094 C 196.789062 333.339844 197.125 333.035156 197.445312 332.714844 C 197.769531 332.394531 198.070312 332.054688 198.351562 331.699219 C 198.636719 331.34375 198.898438 330.972656 199.140625 330.589844 C 199.378906 330.203125 199.597656 329.804688 199.796875 329.394531 C 199.992188 328.984375 200.164062 328.566406 200.3125 328.136719 C 200.460938 327.707031 200.585938 327.273438 200.683594 326.828125 C 200.785156 326.386719 200.859375 325.9375 200.90625 325.484375 C 200.957031 325.035156 200.980469 324.582031 200.976562 324.125 C 200.972656 323.671875 200.945312 323.21875 200.894531 322.769531 L 200.894531 309.375 C 204.425781 308.890625 207.925781 308.234375 211.390625 307.414062 C 214.859375 306.589844 218.28125 305.605469 221.65625 304.453125 C 225.027344 303.300781 228.339844 301.992188 231.585938 300.519531 C 234.832031 299.050781 238.003906 297.429688 241.09375 295.65625 C 244.1875 293.878906 247.183594 291.960938 250.089844 289.898438 C 253 287.835938 255.800781 285.636719 258.496094 283.304688 C 261.191406 280.972656 263.765625 278.515625 266.226562 275.933594 C 268.683594 273.355469 271.015625 270.660156 273.214844 267.855469 C 277.261719 272.445312 280.863281 277.355469 284.023438 282.59375 C 287.183594 287.832031 289.851562 293.308594 292.023438 299.027344 C 294.195312 304.746094 295.839844 310.609375 296.957031 316.625 C 298.070312 322.640625 298.640625 328.703125 298.660156 334.820312 Z M 298.660156 342.855469 " fill-opacity="1" fill-rule="nonzero"/></svg>
