<svg xmlns="http://www.w3.org/2000/svg" xmlns:xlink="http://www.w3.org/1999/xlink" width="32" zoomAndPan="magnify" viewBox="0 0 375 374.999991" height="32" preserveAspectRatio="xMidYMid meet" version="1.0"><defs><clipPath id="a166affa9c"><path d="M 16.363281 0 L 358.363281 0 L 358.363281 375 L 16.363281 375 Z M 16.363281 0 " clip-rule="nonzero"/></clipPath></defs><g clip-path="url(#a166affa9c)"><path fill="#003b1f" d="M 342.078125 65.261719 L 268.792969 65.261719 L 268.792969 53.769531 C 268.789062 52.011719 268.699219 50.257812 268.527344 48.507812 C 268.351562 46.757812 268.09375 45.023438 267.746094 43.300781 C 267.402344 41.574219 266.976562 39.871094 266.464844 38.191406 C 265.953125 36.507812 265.359375 34.855469 264.6875 33.230469 C 264.011719 31.609375 263.261719 30.019531 262.433594 28.472656 C 261.601562 26.921875 260.699219 25.414062 259.722656 23.953125 C 258.746094 22.492188 257.703125 21.082031 256.585938 19.722656 C 255.472656 18.363281 254.292969 17.0625 253.050781 15.820312 C 251.808594 14.578125 250.507812 13.398438 249.152344 12.28125 C 247.792969 11.167969 246.382812 10.121094 244.925781 9.140625 C 243.464844 8.164062 241.960938 7.261719 240.410156 6.433594 C 238.863281 5.601562 237.277344 4.851562 235.652344 4.175781 C 234.03125 3.503906 232.378906 2.910156 230.699219 2.398438 C 229.019531 1.886719 227.316406 1.457031 225.59375 1.113281 C 223.871094 0.765625 222.136719 0.507812 220.386719 0.332031 C 218.640625 0.15625 216.886719 0.0703125 215.128906 0.0664062 L 159.597656 0.0664062 C 157.839844 0.0703125 156.085938 0.15625 154.339844 0.332031 C 152.589844 0.507812 150.855469 0.765625 149.132812 1.113281 C 147.410156 1.457031 145.710938 1.886719 144.027344 2.398438 C 142.347656 2.910156 140.695312 3.503906 139.074219 4.175781 C 137.453125 4.851562 135.867188 5.601562 134.316406 6.433594 C 132.769531 7.261719 131.261719 8.164062 129.804688 9.140625 C 128.34375 10.121094 126.933594 11.167969 125.574219 12.28125 C 124.21875 13.398438 122.917969 14.578125 121.675781 15.820312 C 120.433594 17.0625 119.253906 18.363281 118.140625 19.722656 C 117.027344 21.082031 115.980469 22.492188 115.003906 23.953125 C 114.027344 25.414062 113.125 26.921875 112.296875 28.472656 C 111.464844 30.019531 110.714844 31.609375 110.042969 33.230469 C 109.367188 34.855469 108.777344 36.507812 108.265625 38.191406 C 107.753906 39.871094 107.324219 41.574219 106.980469 43.300781 C 106.636719 45.023438 106.375 46.757812 106.199219 48.507812 C 106.027344 50.257812 105.9375 52.011719 105.933594 53.769531 L 105.933594 65.261719 L 32.648438 65.261719 C 32.117188 65.261719 31.582031 65.285156 31.054688 65.339844 C 30.523438 65.390625 29.996094 65.46875 29.472656 65.574219 C 28.949219 65.679688 28.433594 65.808594 27.921875 65.960938 C 27.410156 66.117188 26.910156 66.296875 26.417969 66.5 C 25.925781 66.707031 25.441406 66.933594 24.972656 67.183594 C 24.5 67.4375 24.046875 67.710938 23.601562 68.007812 C 23.15625 68.304688 22.730469 68.621094 22.316406 68.960938 C 21.90625 69.300781 21.511719 69.65625 21.132812 70.035156 C 20.757812 70.410156 20.398438 70.808594 20.058594 71.21875 C 19.722656 71.632812 19.40625 72.0625 19.109375 72.503906 C 18.8125 72.949219 18.539062 73.40625 18.285156 73.875 C 18.035156 74.347656 17.808594 74.828125 17.601562 75.320312 C 17.398438 75.816406 17.21875 76.316406 17.066406 76.828125 C 16.910156 77.339844 16.78125 77.855469 16.675781 78.378906 C 16.574219 78.902344 16.496094 79.429688 16.441406 79.960938 C 16.390625 80.492188 16.363281 81.027344 16.363281 81.558594 C 16.363281 82.09375 16.390625 82.625 16.441406 83.15625 C 16.496094 83.6875 16.574219 84.214844 16.675781 84.738281 C 16.78125 85.261719 16.910156 85.78125 17.066406 86.289062 C 17.21875 86.800781 17.398438 87.304688 17.601562 87.796875 C 17.808594 88.289062 18.035156 88.773438 18.285156 89.242188 C 18.539062 89.714844 18.8125 90.171875 19.109375 90.613281 C 19.40625 91.058594 19.722656 91.488281 20.058594 91.898438 C 20.398438 92.3125 20.757812 92.707031 21.132812 93.085938 C 21.511719 93.460938 21.90625 93.820312 22.316406 94.160156 C 22.730469 94.496094 23.15625 94.816406 23.601562 95.109375 C 24.046875 95.40625 24.5 95.683594 24.972656 95.933594 C 25.441406 96.183594 25.925781 96.414062 26.417969 96.617188 C 26.910156 96.820312 27.410156 97 27.921875 97.15625 C 28.433594 97.3125 28.949219 97.441406 29.472656 97.542969 C 29.996094 97.648438 30.523438 97.726562 31.054688 97.78125 C 31.582031 97.832031 32.117188 97.859375 32.648438 97.859375 L 57.078125 97.859375 L 57.078125 320.984375 C 57.082031 322.753906 57.167969 324.515625 57.34375 326.277344 C 57.519531 328.035156 57.78125 329.78125 58.128906 331.515625 C 58.476562 333.246094 58.90625 334.960938 59.421875 336.652344 C 59.9375 338.34375 60.53125 340.003906 61.210938 341.636719 C 61.886719 343.269531 62.644531 344.863281 63.480469 346.421875 C 64.3125 347.980469 65.222656 349.496094 66.203125 350.964844 C 67.1875 352.433594 68.238281 353.847656 69.363281 355.214844 C 70.484375 356.582031 71.667969 357.886719 72.917969 359.136719 C 74.167969 360.386719 75.476562 361.570312 76.84375 362.691406 C 78.210938 363.8125 79.628906 364.863281 81.097656 365.84375 C 82.566406 366.824219 84.078125 367.734375 85.636719 368.566406 C 87.195312 369.398438 88.792969 370.152344 90.425781 370.828125 C 92.054688 371.503906 93.71875 372.097656 95.40625 372.609375 C 97.097656 373.125 98.808594 373.550781 100.542969 373.898438 C 102.273438 374.242188 104.019531 374.5 105.777344 374.671875 C 107.535156 374.847656 109.296875 374.933594 111.066406 374.933594 L 263.742188 374.933594 C 265.507812 374.929688 267.269531 374.839844 269.023438 374.667969 C 270.78125 374.492188 272.523438 374.230469 274.253906 373.882812 C 275.984375 373.535156 277.695312 373.105469 279.382812 372.59375 C 281.070312 372.078125 282.730469 371.480469 284.359375 370.804688 C 285.988281 370.128906 287.582031 369.371094 289.136719 368.539062 C 290.695312 367.707031 292.207031 366.796875 293.671875 365.816406 C 295.140625 364.835938 296.554688 363.785156 297.917969 362.664062 C 299.28125 361.542969 300.589844 360.355469 301.835938 359.109375 C 303.085938 357.859375 304.269531 356.550781 305.386719 355.1875 C 306.507812 353.824219 307.558594 352.40625 308.539062 350.9375 C 309.519531 349.46875 310.425781 347.957031 311.261719 346.398438 C 312.09375 344.84375 312.847656 343.25 313.523438 341.617188 C 314.199219 339.988281 314.796875 338.324219 315.308594 336.636719 C 315.824219 334.945312 316.253906 333.234375 316.601562 331.503906 C 316.945312 329.773438 317.207031 328.027344 317.382812 326.269531 C 317.558594 324.511719 317.648438 322.75 317.648438 320.984375 L 317.648438 97.859375 L 342.078125 97.859375 C 342.609375 97.859375 343.144531 97.832031 343.675781 97.78125 C 344.203125 97.726562 344.730469 97.648438 345.253906 97.542969 C 345.777344 97.441406 346.296875 97.3125 346.804688 97.15625 C 347.316406 97 347.816406 96.820312 348.308594 96.617188 C 348.804688 96.414062 349.285156 96.183594 349.753906 95.933594 C 350.226562 95.683594 350.683594 95.40625 351.125 95.109375 C 351.570312 94.816406 351.996094 94.496094 352.410156 94.160156 C 352.820312 93.820312 353.214844 93.460938 353.59375 93.085938 C 353.972656 92.707031 354.328125 92.3125 354.667969 91.898438 C 355.003906 91.488281 355.324219 91.058594 355.617188 90.613281 C 355.914062 90.171875 356.1875 89.714844 356.441406 89.242188 C 356.691406 88.773438 356.917969 88.289062 357.125 87.796875 C 357.328125 87.304688 357.507812 86.800781 357.664062 86.289062 C 357.816406 85.78125 357.945312 85.261719 358.050781 84.738281 C 358.15625 84.214844 358.234375 83.6875 358.285156 83.15625 C 358.335938 82.625 358.363281 82.09375 358.363281 81.558594 C 358.363281 81.027344 358.335938 80.492188 358.285156 79.960938 C 358.234375 79.429688 358.15625 78.902344 358.050781 78.378906 C 357.945312 77.855469 357.816406 77.339844 357.664062 76.828125 C 357.507812 76.316406 357.328125 75.816406 357.125 75.320312 C 356.917969 74.828125 356.691406 74.347656 356.441406 73.875 C 356.1875 73.40625 355.914062 72.949219 355.617188 72.503906 C 355.324219 72.0625 355.003906 71.632812 354.667969 71.21875 C 354.328125 70.808594 353.972656 70.410156 353.59375 70.035156 C 353.214844 69.65625 352.820312 69.300781 352.410156 68.960938 C 351.996094 68.621094 351.570312 68.304688 351.125 68.007812 C 350.683594 67.710938 350.226562 67.4375 349.753906 67.183594 C 349.285156 66.933594 348.804688 66.707031 348.308594 66.5 C 347.816406 66.296875 347.316406 66.117188 346.804688 65.960938 C 346.296875 65.808594 345.777344 65.679688 345.253906 65.574219 C 344.730469 65.46875 344.203125 65.390625 343.675781 65.339844 C 343.144531 65.285156 342.609375 65.261719 342.078125 65.261719 Z M 138.507812 53.769531 C 138.507812 53.078125 138.539062 52.390625 138.609375 51.703125 C 138.675781 51.011719 138.777344 50.332031 138.910156 49.652344 C 139.046875 48.976562 139.214844 48.304688 139.414062 47.644531 C 139.613281 46.980469 139.847656 46.332031 140.113281 45.691406 C 140.375 45.054688 140.671875 44.429688 140.996094 43.820312 C 141.324219 43.210938 141.675781 42.617188 142.0625 42.042969 C 142.445312 41.46875 142.855469 40.914062 143.292969 40.378906 C 143.730469 39.847656 144.195312 39.335938 144.683594 38.847656 C 145.171875 38.355469 145.683594 37.894531 146.21875 37.453125 C 146.75 37.015625 147.304688 36.605469 147.878906 36.222656 C 148.453125 35.835938 149.046875 35.480469 149.65625 35.15625 C 150.265625 34.832031 150.886719 34.535156 151.527344 34.269531 C 152.164062 34.007812 152.8125 33.773438 153.472656 33.574219 C 154.136719 33.371094 154.804688 33.203125 155.480469 33.070312 C 156.160156 32.933594 156.84375 32.832031 157.53125 32.765625 C 158.214844 32.699219 158.90625 32.664062 159.597656 32.664062 L 215.128906 32.664062 C 215.820312 32.664062 216.511719 32.699219 217.199219 32.765625 C 217.886719 32.832031 218.566406 32.933594 219.246094 33.070312 C 219.921875 33.203125 220.59375 33.371094 221.253906 33.574219 C 221.914062 33.773438 222.5625 34.007812 223.203125 34.269531 C 223.839844 34.535156 224.464844 34.832031 225.074219 35.15625 C 225.683594 35.480469 226.273438 35.835938 226.847656 36.222656 C 227.421875 36.605469 227.976562 37.015625 228.511719 37.453125 C 229.042969 37.894531 229.554688 38.355469 230.042969 38.847656 C 230.53125 39.335938 230.996094 39.847656 231.433594 40.378906 C 231.871094 40.914062 232.28125 41.46875 232.667969 42.042969 C 233.050781 42.617188 233.40625 43.210938 233.730469 43.820312 C 234.054688 44.429688 234.351562 45.054688 234.617188 45.691406 C 234.878906 46.332031 235.113281 46.980469 235.3125 47.644531 C 235.511719 48.304688 235.679688 48.976562 235.816406 49.652344 C 235.949219 50.332031 236.050781 51.011719 236.121094 51.703125 C 236.1875 52.390625 236.222656 53.078125 236.222656 53.769531 L 236.222656 65.261719 L 138.507812 65.261719 Z M 285.078125 320.984375 C 285.074219 321.683594 285.039062 322.378906 284.96875 323.074219 C 284.898438 323.769531 284.792969 324.460938 284.65625 325.144531 C 284.515625 325.828125 284.34375 326.507812 284.140625 327.175781 C 283.9375 327.84375 283.699219 328.5 283.433594 329.144531 C 283.164062 329.789062 282.863281 330.417969 282.535156 331.035156 C 282.203125 331.648438 281.847656 332.246094 281.457031 332.828125 C 281.070312 333.410156 280.652344 333.96875 280.210938 334.507812 C 279.765625 335.046875 279.300781 335.566406 278.804688 336.058594 C 278.3125 336.554688 277.796875 337.023438 277.257812 337.464844 C 276.71875 337.910156 276.15625 338.324219 275.578125 338.714844 C 274.996094 339.101562 274.398438 339.460938 273.785156 339.792969 C 273.167969 340.121094 272.539062 340.421875 271.894531 340.6875 C 271.25 340.957031 270.59375 341.195312 269.925781 341.398438 C 269.261719 341.601562 268.585938 341.773438 267.898438 341.914062 C 267.214844 342.050781 266.527344 342.15625 265.832031 342.226562 C 265.136719 342.296875 264.441406 342.332031 263.742188 342.335938 L 111.066406 342.335938 C 110.367188 342.335938 109.667969 342.300781 108.972656 342.234375 C 108.273438 342.164062 107.582031 342.0625 106.898438 341.925781 C 106.210938 341.789062 105.53125 341.621094 104.863281 341.417969 C 104.191406 341.214844 103.535156 340.980469 102.886719 340.710938 C 102.242188 340.445312 101.609375 340.148438 100.992188 339.816406 C 100.375 339.488281 99.773438 339.128906 99.191406 338.742188 C 98.609375 338.351562 98.046875 337.9375 97.507812 337.492188 C 96.964844 337.050781 96.445312 336.582031 95.949219 336.085938 C 95.453125 335.59375 94.984375 335.074219 94.539062 334.535156 C 94.09375 333.996094 93.675781 333.433594 93.285156 332.851562 C 92.898438 332.273438 92.535156 331.671875 92.203125 331.054688 C 91.871094 330.441406 91.574219 329.808594 91.304688 329.160156 C 91.035156 328.515625 90.796875 327.859375 90.589844 327.1875 C 90.386719 326.519531 90.214844 325.839844 90.074219 325.15625 C 89.9375 324.46875 89.832031 323.777344 89.761719 323.082031 C 89.6875 322.382812 89.652344 321.683594 89.648438 320.984375 L 89.648438 97.859375 L 285.078125 97.859375 Z M 285.078125 320.984375 " fill-opacity="1" fill-rule="nonzero"/></g><path fill="#003b1f" d="M 146.648438 134.449219 C 146.117188 134.449219 145.582031 134.472656 145.054688 134.527344 C 144.523438 134.578125 143.996094 134.65625 143.472656 134.761719 C 142.949219 134.867188 142.433594 134.996094 141.921875 135.148438 C 141.410156 135.304688 140.910156 135.484375 140.417969 135.6875 C 139.925781 135.894531 139.441406 136.121094 138.972656 136.371094 C 138.5 136.625 138.046875 136.898438 137.601562 137.195312 C 137.15625 137.492188 136.730469 137.808594 136.316406 138.148438 C 135.90625 138.488281 135.511719 138.84375 135.132812 139.222656 C 134.757812 139.597656 134.398438 139.996094 134.058594 140.40625 C 133.722656 140.820312 133.40625 141.246094 133.109375 141.691406 C 132.8125 142.136719 132.539062 142.59375 132.285156 143.0625 C 132.035156 143.535156 131.808594 144.015625 131.601562 144.507812 C 131.398438 145.003906 131.21875 145.503906 131.066406 146.015625 C 130.910156 146.527344 130.78125 147.042969 130.675781 147.566406 C 130.574219 148.089844 130.496094 148.617188 130.441406 149.148438 C 130.390625 149.679688 130.363281 150.214844 130.363281 150.746094 L 130.363281 297.433594 C 130.363281 297.96875 130.390625 298.5 130.441406 299.03125 C 130.496094 299.5625 130.574219 300.089844 130.675781 300.613281 C 130.78125 301.136719 130.910156 301.652344 131.066406 302.164062 C 131.21875 302.675781 131.398438 303.175781 131.601562 303.671875 C 131.808594 304.164062 132.035156 304.644531 132.285156 305.117188 C 132.539062 305.585938 132.8125 306.042969 133.109375 306.488281 C 133.40625 306.933594 133.722656 307.359375 134.058594 307.773438 C 134.398438 308.1875 134.757812 308.582031 135.132812 308.957031 C 135.511719 309.335938 135.90625 309.695312 136.316406 310.03125 C 136.730469 310.371094 137.15625 310.6875 137.601562 310.984375 C 138.046875 311.28125 138.5 311.554688 138.972656 311.808594 C 139.441406 312.058594 139.925781 312.289062 140.417969 312.492188 C 140.910156 312.695312 141.410156 312.875 141.921875 313.03125 C 142.433594 313.183594 142.949219 313.316406 143.472656 313.417969 C 143.996094 313.523438 144.523438 313.601562 145.054688 313.652344 C 145.582031 313.707031 146.117188 313.730469 146.648438 313.730469 C 147.183594 313.730469 147.714844 313.707031 148.246094 313.652344 C 148.777344 313.601562 149.304688 313.523438 149.828125 313.417969 C 150.351562 313.316406 150.867188 313.183594 151.375 313.03125 C 151.886719 312.875 152.390625 312.695312 152.882812 312.492188 C 153.375 312.289062 153.855469 312.058594 154.328125 311.808594 C 154.796875 311.554688 155.253906 311.28125 155.695312 310.984375 C 156.140625 310.6875 156.570312 310.371094 156.980469 310.03125 C 157.394531 309.695312 157.789062 309.335938 158.164062 308.957031 C 158.542969 308.582031 158.898438 308.1875 159.238281 307.773438 C 159.578125 307.359375 159.894531 306.933594 160.191406 306.488281 C 160.488281 306.042969 160.761719 305.585938 161.011719 305.117188 C 161.261719 304.644531 161.492188 304.164062 161.695312 303.671875 C 161.898438 303.175781 162.078125 302.675781 162.234375 302.164062 C 162.386719 301.652344 162.519531 301.136719 162.621094 300.613281 C 162.726562 300.089844 162.804688 299.5625 162.855469 299.03125 C 162.910156 298.5 162.933594 297.96875 162.933594 297.433594 L 162.933594 150.746094 C 162.933594 150.214844 162.910156 149.679688 162.855469 149.148438 C 162.804688 148.617188 162.726562 148.089844 162.621094 147.566406 C 162.519531 147.042969 162.386719 146.527344 162.234375 146.015625 C 162.078125 145.503906 161.898438 145.003906 161.695312 144.507812 C 161.492188 144.015625 161.261719 143.535156 161.011719 143.0625 C 160.761719 142.59375 160.488281 142.136719 160.191406 141.691406 C 159.894531 141.246094 159.578125 140.820312 159.238281 140.40625 C 158.898438 139.996094 158.542969 139.597656 158.164062 139.222656 C 157.789062 138.84375 157.394531 138.488281 156.980469 138.148438 C 156.570312 137.808594 156.140625 137.492188 155.695312 137.195312 C 155.253906 136.898438 154.796875 136.625 154.328125 136.371094 C 153.855469 136.121094 153.375 135.894531 152.882812 135.6875 C 152.390625 135.484375 151.886719 135.304688 151.375 135.148438 C 150.867188 134.996094 150.351562 134.867188 149.828125 134.761719 C 149.304688 134.65625 148.777344 134.578125 148.246094 134.527344 C 147.714844 134.472656 147.183594 134.449219 146.648438 134.449219 Z M 146.648438 134.449219 " fill-opacity="1" fill-rule="nonzero"/><path fill="#003b1f" d="M 228.078125 134.449219 C 227.542969 134.449219 227.011719 134.472656 226.480469 134.527344 C 225.949219 134.578125 225.425781 134.65625 224.902344 134.761719 C 224.378906 134.867188 223.859375 134.996094 223.351562 135.148438 C 222.839844 135.304688 222.339844 135.484375 221.84375 135.6875 C 221.351562 135.894531 220.871094 136.121094 220.402344 136.371094 C 219.929688 136.625 219.472656 136.898438 219.03125 137.195312 C 218.585938 137.492188 218.160156 137.808594 217.746094 138.148438 C 217.335938 138.488281 216.9375 138.84375 216.5625 139.222656 C 216.183594 139.597656 215.828125 139.996094 215.488281 140.40625 C 215.152344 140.820312 214.832031 141.246094 214.535156 141.691406 C 214.242188 142.136719 213.964844 142.59375 213.714844 143.0625 C 213.464844 143.535156 213.234375 144.015625 213.03125 144.507812 C 212.828125 145.003906 212.648438 145.503906 212.492188 146.015625 C 212.339844 146.527344 212.210938 147.042969 212.105469 147.566406 C 212 148.089844 211.921875 148.617188 211.871094 149.148438 C 211.816406 149.679688 211.792969 150.214844 211.792969 150.746094 L 211.792969 297.433594 C 211.792969 297.96875 211.816406 298.5 211.871094 299.03125 C 211.921875 299.5625 212 300.089844 212.105469 300.613281 C 212.210938 301.136719 212.339844 301.652344 212.492188 302.164062 C 212.648438 302.675781 212.828125 303.175781 213.03125 303.671875 C 213.234375 304.164062 213.464844 304.644531 213.714844 305.117188 C 213.964844 305.585938 214.242188 306.042969 214.535156 306.488281 C 214.832031 306.933594 215.152344 307.359375 215.488281 307.773438 C 215.828125 308.1875 216.183594 308.582031 216.5625 308.957031 C 216.9375 309.335938 217.335938 309.695312 217.746094 310.03125 C 218.160156 310.371094 218.585938 310.6875 219.03125 310.984375 C 219.472656 311.28125 219.929688 311.554688 220.402344 311.808594 C 220.871094 312.058594 221.351562 312.289062 221.84375 312.492188 C 222.339844 312.695312 222.839844 312.875 223.351562 313.03125 C 223.859375 313.183594 224.378906 313.316406 224.902344 313.417969 C 225.425781 313.523438 225.949219 313.601562 226.480469 313.652344 C 227.011719 313.707031 227.542969 313.730469 228.078125 313.730469 C 228.609375 313.730469 229.144531 313.707031 229.675781 313.652344 C 230.203125 313.601562 230.730469 313.523438 231.253906 313.417969 C 231.777344 313.316406 232.296875 313.183594 232.804688 313.03125 C 233.316406 312.875 233.816406 312.695312 234.308594 312.492188 C 234.804688 312.289062 235.285156 312.058594 235.753906 311.808594 C 236.226562 311.554688 236.683594 311.28125 237.125 310.984375 C 237.570312 310.6875 237.996094 310.371094 238.410156 310.03125 C 238.820312 309.695312 239.214844 309.335938 239.59375 308.957031 C 239.972656 308.582031 240.328125 308.1875 240.667969 307.773438 C 241.003906 307.359375 241.324219 306.933594 241.617188 306.488281 C 241.914062 306.042969 242.1875 305.585938 242.441406 305.117188 C 242.691406 304.644531 242.917969 304.164062 243.125 303.671875 C 243.328125 303.175781 243.507812 302.675781 243.664062 302.164062 C 243.816406 301.652344 243.945312 301.136719 244.050781 300.613281 C 244.15625 300.089844 244.234375 299.5625 244.285156 299.03125 C 244.335938 298.5 244.363281 297.96875 244.363281 297.433594 L 244.363281 150.746094 C 244.363281 150.214844 244.335938 149.679688 244.285156 149.148438 C 244.234375 148.617188 244.15625 148.089844 244.050781 147.566406 C 243.945312 147.042969 243.816406 146.527344 243.664062 146.015625 C 243.507812 145.503906 243.328125 145.003906 243.125 144.507812 C 242.917969 144.015625 242.691406 143.535156 242.441406 143.0625 C 242.1875 142.59375 241.914062 142.136719 241.617188 141.691406 C 241.324219 141.246094 241.003906 140.820312 240.667969 140.40625 C 240.328125 139.996094 239.972656 139.597656 239.59375 139.222656 C 239.214844 138.84375 238.820312 138.488281 238.410156 138.148438 C 237.996094 137.808594 237.570312 137.492188 237.125 137.195312 C 236.683594 136.898438 236.226562 136.625 235.753906 136.371094 C 235.285156 136.121094 234.804688 135.894531 234.308594 135.6875 C 233.816406 135.484375 233.316406 135.304688 232.804688 135.148438 C 232.296875 134.996094 231.777344 134.867188 231.253906 134.761719 C 230.730469 134.65625 230.203125 134.578125 229.675781 134.527344 C 229.144531 134.472656 228.609375 134.449219 228.078125 134.449219 Z M 228.078125 134.449219 " fill-opacity="1" fill-rule="nonzero"/></svg>
