<svg xmlns="http://www.w3.org/2000/svg" xmlns:xlink="http://www.w3.org/1999/xlink" width="120" zoomAndPan="magnify" viewBox="0 0 375 374.999991" height="120" preserveAspectRatio="xMidYMid meet" version="1.0"><defs><g/><clipPath id="e104c7500e"><path d="M 27 26.195312 L 348 26.195312 L 348 299.195312 L 27 299.195312 Z M 27 26.195312 " clip-rule="nonzero"/></clipPath></defs><g fill="#003b1f" fill-opacity="1"><g transform="translate(34.313762, 350.624977)"><g><path d="M 24.953125 -8.5 C 26.378906 -8.5 27.769531 -8.710938 29.125 -9.140625 C 30.476562 -9.578125 31.46875 -10 32.09375 -10.40625 L 33.046875 -11.046875 L 37.046875 -3.046875 C 36.910156 -2.953125 36.726562 -2.820312 36.5 -2.65625 C 36.269531 -2.488281 35.726562 -2.175781 34.875 -1.71875 C 34.019531 -1.269531 33.109375 -0.878906 32.140625 -0.546875 C 31.179688 -0.210938 29.914062 0.0820312 28.34375 0.34375 C 26.78125 0.613281 25.164062 0.75 23.5 0.75 C 19.664062 0.75 16.03125 -0.191406 12.59375 -2.078125 C 9.164062 -3.960938 6.398438 -6.550781 4.296875 -9.84375 C 2.203125 -13.144531 1.15625 -16.710938 1.15625 -20.546875 C 1.15625 -23.453125 1.769531 -26.238281 3 -28.90625 C 4.226562 -31.570312 5.867188 -33.851562 7.921875 -35.75 C 9.972656 -37.644531 12.363281 -39.160156 15.09375 -40.296875 C 17.832031 -41.429688 20.632812 -42 23.5 -42 C 26.164062 -42 28.625 -41.679688 30.875 -41.046875 C 33.125 -40.410156 34.71875 -39.78125 35.65625 -39.15625 L 37.046875 -38.203125 L 33.046875 -30.203125 C 32.816406 -30.398438 32.46875 -30.640625 32 -30.921875 C 31.53125 -31.203125 30.59375 -31.578125 29.1875 -32.046875 C 27.789062 -32.515625 26.378906 -32.75 24.953125 -32.75 C 22.679688 -32.75 20.644531 -32.378906 18.84375 -31.640625 C 17.050781 -30.910156 15.628906 -29.945312 14.578125 -28.75 C 13.523438 -27.550781 12.722656 -26.257812 12.171875 -24.875 C 11.617188 -23.488281 11.34375 -22.082031 11.34375 -20.65625 C 11.34375 -17.519531 12.519531 -14.707031 14.875 -12.21875 C 17.226562 -9.738281 20.585938 -8.5 24.953125 -8.5 Z M 24.953125 -8.5 "/></g></g></g><g fill="#003b1f" fill-opacity="1"><g transform="translate(71.957932, 350.624977)"><g><path d="M 5.421875 -3.046875 C 2.578125 -5.578125 1.15625 -8.828125 1.15625 -12.796875 C 1.15625 -16.765625 2.632812 -20.023438 5.59375 -22.578125 C 8.5625 -25.128906 12.226562 -26.40625 16.59375 -26.40625 C 20.894531 -26.40625 24.519531 -25.117188 27.46875 -22.546875 C 30.425781 -19.984375 31.90625 -16.734375 31.90625 -12.796875 C 31.90625 -8.867188 30.460938 -5.628906 27.578125 -3.078125 C 24.691406 -0.523438 21.03125 0.75 16.59375 0.75 C 12 0.75 8.273438 -0.515625 5.421875 -3.046875 Z M 12.265625 -17.140625 C 11.117188 -16.015625 10.546875 -14.566406 10.546875 -12.796875 C 10.546875 -11.035156 11.09375 -9.59375 12.1875 -8.46875 C 13.289062 -7.351562 14.742188 -6.796875 16.546875 -6.796875 C 18.285156 -6.796875 19.710938 -7.363281 20.828125 -8.5 C 21.941406 -9.632812 22.5 -11.066406 22.5 -12.796875 C 22.5 -14.566406 21.921875 -16.015625 20.765625 -17.140625 C 19.617188 -18.273438 18.210938 -18.84375 16.546875 -18.84375 C 14.847656 -18.84375 13.421875 -18.273438 12.265625 -17.140625 Z M 12.265625 -17.140625 "/></g></g></g><g fill="#003b1f" fill-opacity="1"><g transform="translate(105.002813, 350.624977)"><g><path d="M 4.75 -3.171875 C 2.351562 -5.785156 1.15625 -8.992188 1.15625 -12.796875 C 1.15625 -16.597656 2.351562 -19.816406 4.75 -22.453125 C 7.144531 -25.085938 10.195312 -26.40625 13.90625 -26.40625 C 17.300781 -26.40625 20.097656 -25.335938 22.296875 -23.203125 L 22.296875 -25.65625 L 31.15625 -25.65625 L 31.15625 0 L 22.40625 0 L 22.40625 -2.90625 L 22.296875 -2.90625 C 20.097656 -0.46875 17.300781 0.75 13.90625 0.75 C 10.195312 0.75 7.144531 -0.554688 4.75 -3.171875 Z M 12.265625 -17.140625 C 11.117188 -16.015625 10.546875 -14.566406 10.546875 -12.796875 C 10.546875 -11.035156 11.09375 -9.59375 12.1875 -8.46875 C 13.289062 -7.351562 14.742188 -6.796875 16.546875 -6.796875 C 18.285156 -6.796875 19.710938 -7.363281 20.828125 -8.5 C 21.941406 -9.632812 22.5 -11.066406 22.5 -12.796875 C 22.5 -14.566406 21.921875 -16.015625 20.765625 -17.140625 C 19.617188 -18.273438 18.210938 -18.84375 16.546875 -18.84375 C 14.847656 -18.84375 13.421875 -18.273438 12.265625 -17.140625 Z M 12.265625 -17.140625 "/></g></g></g><g fill="#003b1f" fill-opacity="1"><g transform="translate(139.147529, 350.624977)"><g><path d="M 16.65625 -19.15625 C 14.988281 -19.15625 13.550781 -18.535156 12.34375 -17.296875 C 11.144531 -16.066406 10.546875 -14.582031 10.546875 -12.84375 C 10.546875 -11.082031 11.144531 -9.582031 12.34375 -8.34375 C 13.550781 -7.113281 14.988281 -6.5 16.65625 -6.5 C 17.445312 -6.5 18.203125 -6.597656 18.921875 -6.796875 C 19.640625 -6.992188 20.164062 -7.195312 20.5 -7.40625 L 20.953125 -7.703125 L 23.953125 -1.546875 C 23.710938 -1.378906 23.382812 -1.171875 22.96875 -0.921875 C 22.550781 -0.671875 21.601562 -0.332031 20.125 0.09375 C 18.644531 0.53125 17.050781 0.75 15.34375 0.75 C 11.582031 0.75 8.273438 -0.570312 5.421875 -3.21875 C 2.578125 -5.875 1.15625 -9.050781 1.15625 -12.75 C 1.15625 -16.476562 2.578125 -19.6875 5.421875 -22.375 C 8.273438 -25.0625 11.582031 -26.40625 15.34375 -26.40625 C 17.050781 -26.40625 18.617188 -26.203125 20.046875 -25.796875 C 21.484375 -25.398438 22.5 -25 23.09375 -24.59375 L 23.953125 -24 L 20.953125 -17.953125 C 19.847656 -18.753906 18.414062 -19.15625 16.65625 -19.15625 Z M 16.65625 -19.15625 "/></g></g></g><g fill="#003b1f" fill-opacity="1"><g transform="translate(163.693731, 350.624977)"><g><path d="M 3 0 L 3 -43 L 11.84375 -43 L 11.84375 -22.953125 L 11.953125 -22.953125 C 14.253906 -25.253906 16.703125 -26.40625 19.296875 -26.40625 C 20.566406 -26.40625 21.828125 -26.238281 23.078125 -25.90625 C 24.328125 -25.570312 25.523438 -25.050781 26.671875 -24.34375 C 27.828125 -23.644531 28.757812 -22.65625 29.46875 -21.375 C 30.1875 -20.09375 30.546875 -18.601562 30.546875 -16.90625 L 30.546875 0 L 21.703125 0 L 21.703125 -14.5 C 21.703125 -15.832031 21.273438 -17 20.421875 -18 C 19.578125 -19 18.46875 -19.5 17.09375 -19.5 C 15.757812 -19.5 14.550781 -18.984375 13.46875 -17.953125 C 12.382812 -16.921875 11.84375 -15.769531 11.84375 -14.5 L 11.84375 0 Z M 3 0 "/></g></g></g><g fill="#003b1f" fill-opacity="1"><g transform="translate(196.738612, 350.624977)"><g><path d="M 3 -41.25 L 15.796875 -41.25 C 19.660156 -41.25 22.742188 -40.421875 25.046875 -38.765625 C 27.347656 -37.117188 28.5 -34.445312 28.5 -30.75 C 28.5 -26.613281 26.78125 -23.664062 23.34375 -21.90625 C 29.21875 -20.863281 32.15625 -17.394531 32.15625 -11.5 C 32.15625 -8.03125 30.953125 -5.242188 28.546875 -3.140625 C 26.148438 -1.046875 22.851562 0 18.65625 0 L 3 0 Z M 12.40625 -25.09375 L 13.15625 -25.09375 C 15.25 -25.09375 16.8125 -25.457031 17.84375 -26.1875 C 18.882812 -26.925781 19.40625 -28.128906 19.40625 -29.796875 C 19.40625 -32.597656 17.320312 -34 13.15625 -34 L 12.40625 -34 Z M 12.40625 -7.25 L 15.34375 -7.25 C 19.945312 -7.25 22.25 -8.78125 22.25 -11.84375 C 22.25 -13.675781 21.671875 -14.992188 20.515625 -15.796875 C 19.367188 -16.597656 17.644531 -17 15.34375 -17 L 12.40625 -17 Z M 12.40625 -7.25 "/></g></g></g><g fill="#003b1f" fill-opacity="1"><g transform="translate(230.033444, 350.624977)"><g><path d="M 5.421875 -3.046875 C 2.578125 -5.578125 1.15625 -8.828125 1.15625 -12.796875 C 1.15625 -16.765625 2.632812 -20.023438 5.59375 -22.578125 C 8.5625 -25.128906 12.226562 -26.40625 16.59375 -26.40625 C 20.894531 -26.40625 24.519531 -25.117188 27.46875 -22.546875 C 30.425781 -19.984375 31.90625 -16.734375 31.90625 -12.796875 C 31.90625 -8.867188 30.460938 -5.628906 27.578125 -3.078125 C 24.691406 -0.523438 21.03125 0.75 16.59375 0.75 C 12 0.75 8.273438 -0.515625 5.421875 -3.046875 Z M 12.265625 -17.140625 C 11.117188 -16.015625 10.546875 -14.566406 10.546875 -12.796875 C 10.546875 -11.035156 11.09375 -9.59375 12.1875 -8.46875 C 13.289062 -7.351562 14.742188 -6.796875 16.546875 -6.796875 C 18.285156 -6.796875 19.710938 -7.363281 20.828125 -8.5 C 21.941406 -9.632812 22.5 -11.066406 22.5 -12.796875 C 22.5 -14.566406 21.921875 -16.015625 20.765625 -17.140625 C 19.617188 -18.273438 18.210938 -18.84375 16.546875 -18.84375 C 14.847656 -18.84375 13.421875 -18.273438 12.265625 -17.140625 Z M 12.265625 -17.140625 "/></g></g></g><g fill="#003b1f" fill-opacity="1"><g transform="translate(263.078326, 350.624977)"><g><path d="M 4.75 -3.171875 C 2.351562 -5.785156 1.15625 -8.992188 1.15625 -12.796875 C 1.15625 -16.597656 2.351562 -19.816406 4.75 -22.453125 C 7.144531 -25.085938 10.195312 -26.40625 13.90625 -26.40625 C 17.300781 -26.40625 20.097656 -25.335938 22.296875 -23.203125 L 22.296875 -25.65625 L 31.15625 -25.65625 L 31.15625 0 L 22.40625 0 L 22.40625 -2.90625 L 22.296875 -2.90625 C 20.097656 -0.46875 17.300781 0.75 13.90625 0.75 C 10.195312 0.75 7.144531 -0.554688 4.75 -3.171875 Z M 12.265625 -17.140625 C 11.117188 -16.015625 10.546875 -14.566406 10.546875 -12.796875 C 10.546875 -11.035156 11.09375 -9.59375 12.1875 -8.46875 C 13.289062 -7.351562 14.742188 -6.796875 16.546875 -6.796875 C 18.285156 -6.796875 19.710938 -7.363281 20.828125 -8.5 C 21.941406 -9.632812 22.5 -11.066406 22.5 -12.796875 C 22.5 -14.566406 21.921875 -16.015625 20.765625 -17.140625 C 19.617188 -18.273438 18.210938 -18.84375 16.546875 -18.84375 C 14.847656 -18.84375 13.421875 -18.273438 12.265625 -17.140625 Z M 12.265625 -17.140625 "/></g></g></g><g fill="#003b1f" fill-opacity="1"><g transform="translate(297.223031, 350.624977)"><g><path d="M 3 0 L 3 -25.65625 L 11.84375 -25.65625 L 11.84375 -21.953125 L 11.953125 -21.953125 C 12.015625 -22.085938 12.117188 -22.253906 12.265625 -22.453125 C 12.421875 -22.648438 12.75 -23 13.25 -23.5 C 13.75 -24 14.28125 -24.445312 14.84375 -24.84375 C 15.414062 -25.25 16.148438 -25.609375 17.046875 -25.921875 C 17.953125 -26.242188 18.867188 -26.40625 19.796875 -26.40625 C 20.765625 -26.40625 21.710938 -26.269531 22.640625 -26 C 23.578125 -25.726562 24.265625 -25.460938 24.703125 -25.203125 L 25.40625 -24.796875 L 21.703125 -17.296875 C 20.597656 -18.234375 19.0625 -18.703125 17.09375 -18.703125 C 16.03125 -18.703125 15.113281 -18.46875 14.34375 -18 C 13.582031 -17.53125 13.039062 -16.960938 12.71875 -16.296875 C 12.40625 -15.628906 12.179688 -15.0625 12.046875 -14.59375 C 11.910156 -14.132812 11.84375 -13.769531 11.84375 -13.5 L 11.84375 0 Z M 3 0 "/></g></g></g><g fill="#003b1f" fill-opacity="1"><g transform="translate(322.119193, 350.624977)"><g><path d="M 4.75 -3.171875 C 2.351562 -5.785156 1.15625 -8.992188 1.15625 -12.796875 C 1.15625 -16.597656 2.351562 -19.816406 4.75 -22.453125 C 7.144531 -25.085938 10.195312 -26.40625 13.90625 -26.40625 C 17.300781 -26.40625 20.097656 -25.335938 22.296875 -23.203125 L 22.296875 -43 L 31.15625 -43 L 31.15625 0 L 22.40625 0 L 22.40625 -2.90625 L 22.296875 -2.90625 C 20.097656 -0.46875 17.300781 0.75 13.90625 0.75 C 10.195312 0.75 7.144531 -0.554688 4.75 -3.171875 Z M 12.265625 -17.140625 C 11.117188 -16.015625 10.546875 -14.566406 10.546875 -12.796875 C 10.546875 -11.035156 11.09375 -9.59375 12.1875 -8.46875 C 13.289062 -7.351562 14.742188 -6.796875 16.546875 -6.796875 C 18.285156 -6.796875 19.710938 -7.363281 20.828125 -8.5 C 21.941406 -9.632812 22.5 -11.066406 22.5 -12.796875 C 22.5 -14.566406 21.921875 -16.015625 20.765625 -17.140625 C 19.617188 -18.273438 18.210938 -18.84375 16.546875 -18.84375 C 14.847656 -18.84375 13.421875 -18.273438 12.265625 -17.140625 Z M 12.265625 -17.140625 "/></g></g></g><g clip-path="url(#e104c7500e)"><path fill="#00bf63" d="M 347.09375 260.371094 L 328.167969 146.019531 C 324.765625 125.441406 305.007812 108.699219 284.125 108.699219 L 254.011719 108.699219 C 254.015625 108.4375 254.027344 108.175781 254.027344 107.914062 C 254.027344 101.648438 253.316406 95.273438 251.828125 88.902344 C 243.144531 51.734375 210.917969 26.261719 175.347656 26.242188 C 169.757812 26.242188 164.089844 26.878906 158.441406 28.195312 C 140.722656 32.316406 125.894531 42.527344 115.570312 56.160156 C 105.238281 69.792969 99.351562 86.871094 99.347656 104.875 C 99.347656 106.144531 99.386719 107.421875 99.445312 108.699219 L 90.976562 108.699219 C 70.09375 108.699219 50.332031 125.441406 46.929688 146.015625 L 28.003906 260.375 C 26.304688 270.621094 28.824219 280.332031 35.09375 287.714844 C 41.363281 295.089844 50.542969 299.15625 60.945312 299.15625 L 314.15625 299.15625 C 324.554688 299.15625 333.738281 295.089844 340.007812 287.714844 C 346.273438 280.332031 348.792969 270.621094 347.09375 260.371094 Z M 330.4375 231.433594 L 299.617188 231.433594 L 292.308594 168.691406 L 319.929688 168.691406 L 321.074219 175.515625 L 304.089844 175.515625 C 303.21875 175.515625 302.394531 175.890625 301.824219 176.542969 C 301.25 177.199219 300.996094 178.066406 301.113281 178.925781 L 306.992188 221.316406 C 307.195312 222.800781 308.464844 223.902344 309.964844 223.902344 L 329.175781 223.902344 Z M 328.171875 217.90625 L 312.578125 217.90625 L 307.535156 181.515625 L 322.078125 181.515625 Z M 235.730469 76.925781 C 237.890625 81.484375 239.65625 86.320312 240.855469 91.457031 C 241.882812 95.875 242.46875 100.28125 242.667969 104.632812 L 239.21875 108.699219 L 231.59375 117.699219 L 227.761719 122.222656 L 215.953125 117.699219 L 203.53125 112.9375 L 203 108.699219 L 200.167969 86.042969 L 215.875 68.976562 Z M 170.148438 37.742188 C 171.886719 37.597656 173.625 37.5 175.347656 37.5 C 183.378906 37.496094 191.238281 39.082031 198.609375 41.960938 L 210.242188 64.011719 L 194.296875 81.335938 L 166.933594 78.09375 L 155.636719 54.261719 Z M 173.253906 161.84375 L 150.0625 168.792969 C 139.730469 163.804688 130.628906 156.109375 123.761719 146.363281 L 125.34375 122.199219 L 144.675781 117.699219 L 154.871094 115.324219 L 157.550781 117.699219 L 172.828125 131.238281 Z M 124.304688 63.316406 L 149.234375 58.285156 L 160.960938 83.027344 L 152.820312 108.097656 L 150.234375 108.699219 L 123.976562 114.8125 L 121.105469 108.699219 L 112.273438 89.882812 C 114.394531 80.136719 118.507812 71.066406 124.304688 63.316406 Z M 53.144531 181.515625 L 67.6875 181.515625 L 62.644531 217.90625 L 47.054688 217.90625 Z M 46.050781 223.902344 L 65.261719 223.902344 C 66.757812 223.902344 68.03125 222.800781 68.234375 221.316406 L 74.109375 178.925781 C 74.230469 178.066406 73.972656 177.199219 73.402344 176.542969 C 72.832031 175.890625 72.007812 175.515625 71.136719 175.515625 L 54.152344 175.515625 L 55.292969 168.691406 L 82.914062 168.691406 L 75.605469 231.433594 L 44.789062 231.433594 Z M 181.542969 290.160156 L 60.945312 290.160156 C 53.234375 290.160156 46.492188 287.226562 41.960938 281.890625 C 37.433594 276.558594 35.632812 269.4375 36.890625 261.839844 L 40.933594 237.414062 C 41.035156 237.425781 41.136719 237.429688 41.242188 237.429688 L 78.28125 237.429688 C 79.804688 237.429688 81.085938 236.292969 81.261719 234.777344 L 83.371094 216.660156 C 83.457031 216.667969 83.542969 216.6875 83.628906 216.6875 C 90.777344 216.6875 97.367188 209.253906 98.632812 199.761719 C 99.382812 194.167969 98.117188 189.027344 95.164062 185.65625 C 93.132812 183.335938 90.398438 182.0625 87.464844 182.0625 C 87.441406 182.0625 87.421875 182.066406 87.402344 182.066406 L 89.269531 166.039062 C 89.367188 165.191406 89.097656 164.335938 88.53125 163.699219 C 87.957031 163.058594 87.144531 162.695312 86.285156 162.695312 L 53.300781 162.695312 L 55.816406 147.484375 C 58.488281 131.339844 74.585938 117.699219 90.972656 117.699219 L 100.351562 117.699219 C 100.675781 119.761719 101.066406 121.828125 101.550781 123.890625 C 109.117188 156.285156 134.558594 179.785156 164.519531 185.304688 C 160.257812 189.449219 157.660156 194.929688 157.660156 200.929688 C 157.660156 212.980469 168.136719 222.929688 181.542969 224.183594 Z M 84.054688 210.796875 L 86.734375 187.816406 C 86.96875 187.875 87.210938 187.917969 87.464844 187.917969 C 88.71875 187.917969 89.824219 188.453125 90.753906 189.515625 C 92.566406 191.582031 93.339844 195.125 92.824219 198.992188 C 91.914062 205.800781 87.648438 210.449219 84.054688 210.796875 Z M 181.542969 218.152344 C 171.457031 216.980469 163.667969 209.703125 163.667969 200.929688 C 163.667969 194.847656 167.410156 189.488281 173.0625 186.378906 C 174.707031 186.488281 176.363281 186.546875 178.027344 186.546875 C 179.195312 186.546875 180.371094 186.507812 181.542969 186.449219 Z M 180.769531 161.984375 L 180.355469 132.039062 L 181.542969 131.28125 L 187.550781 127.464844 L 199.933594 119.59375 L 225.199219 129.277344 L 224.949219 154.460938 C 219.09375 160.878906 211.992188 166.109375 203.886719 169.734375 L 187.550781 164.257812 L 181.542969 162.242188 Z M 204.894531 203.632812 C 203.503906 211.082031 196.449219 216.984375 187.550781 218.121094 L 187.550781 186.105469 Z M 333.136719 281.890625 C 328.609375 287.222656 321.867188 290.160156 314.15625 290.160156 L 187.550781 290.160156 L 187.550781 224.152344 C 197.882812 223.089844 206.433594 216.855469 209.714844 208.503906 L 246.0625 245.230469 L 234.21875 161.019531 C 235.46875 159.601562 236.667969 158.136719 237.808594 156.632812 C 246.246094 145.496094 251.714844 132.058594 253.4375 117.699219 L 284.125 117.699219 C 300.511719 117.699219 316.613281 131.339844 319.28125 147.488281 L 321.800781 162.695312 L 288.9375 162.695312 C 288.082031 162.695312 287.265625 163.058594 286.695312 163.699219 C 286.125 164.339844 285.855469 165.191406 285.957031 166.039062 L 287.824219 182.066406 C 287.800781 182.066406 287.78125 182.0625 287.757812 182.0625 C 284.828125 182.0625 282.089844 183.339844 280.058594 185.65625 C 277.105469 189.027344 275.839844 194.167969 276.589844 199.765625 C 277.855469 209.253906 284.449219 216.6875 291.59375 216.6875 C 291.683594 216.6875 291.765625 216.671875 291.851562 216.664062 L 293.960938 234.777344 C 294.136719 236.292969 295.417969 237.429688 296.941406 237.429688 L 333.980469 237.429688 C 334.003906 237.429688 334.023438 237.429688 334.039062 237.429688 C 334.082031 237.429688 334.125 237.421875 334.167969 237.417969 L 338.210938 261.839844 C 339.464844 269.4375 337.664062 276.558594 333.136719 281.890625 Z M 291.167969 210.796875 C 287.574219 210.449219 283.3125 205.800781 282.402344 198.992188 C 281.882812 195.128906 282.660156 191.582031 284.472656 189.515625 C 285.398438 188.453125 286.507812 187.917969 287.757812 187.917969 C 288.011719 187.917969 288.253906 187.875 288.492188 187.816406 Z M 255.640625 247.753906 C 250.652344 247.753906 246.609375 251.789062 246.609375 256.773438 C 246.609375 261.757812 250.652344 265.796875 255.640625 265.796875 C 260.628906 265.796875 264.667969 261.757812 264.667969 256.773438 C 264.671875 251.789062 260.628906 247.753906 255.640625 247.753906 Z M 259.09375 206.488281 C 254.105469 206.488281 250.066406 210.523438 250.066406 215.507812 C 250.066406 220.488281 254.105469 224.527344 259.09375 224.527344 C 264.082031 224.527344 268.125 220.488281 268.125 215.507812 C 268.125 210.523438 264.082031 206.488281 259.09375 206.488281 Z M 256.363281 169.046875 C 256.363281 164.0625 252.324219 160.027344 247.335938 160.027344 C 242.347656 160.027344 238.304688 164.0625 238.304688 169.046875 C 238.304688 174.03125 242.347656 178.070312 247.335938 178.070312 C 252.324219 178.070312 256.363281 174.03125 256.363281 169.046875 Z M 109.445312 158.777344 C 104.460938 158.78125 100.417969 162.8125 100.414062 167.796875 C 100.417969 172.78125 104.460938 176.8125 109.445312 176.816406 C 114.429688 176.8125 118.476562 172.78125 118.480469 167.796875 C 118.476562 162.8125 114.429688 158.78125 109.445312 158.777344 Z M 154.25 256 C 154.25 260.980469 158.292969 265.019531 163.28125 265.019531 C 168.269531 265.019531 172.308594 260.980469 172.308594 256 C 172.308594 251.015625 168.269531 246.980469 163.28125 246.980469 C 158.292969 246.980469 154.25 251.015625 154.25 256 Z M 144.707031 234.226562 C 139.71875 234.226562 135.675781 238.261719 135.675781 243.246094 C 135.675781 248.226562 139.714844 252.265625 144.707031 252.265625 C 149.695312 252.265625 153.734375 248.226562 153.734375 243.246094 C 153.734375 238.261719 149.695312 234.226562 144.707031 234.226562 Z M 144.707031 246.660156 C 142.820312 246.65625 141.292969 245.128906 141.289062 243.246094 C 141.292969 241.363281 142.820312 239.835938 144.707031 239.835938 C 146.589844 239.835938 148.121094 241.363281 148.121094 243.246094 C 148.121094 245.128906 146.589844 246.65625 144.707031 246.660156 Z M 209.546875 231.765625 C 204.558594 231.765625 200.515625 235.804688 200.515625 240.785156 C 200.515625 245.769531 204.558594 249.804688 209.546875 249.804688 C 214.535156 249.804688 218.574219 245.769531 218.574219 240.785156 C 218.574219 235.804688 214.535156 231.765625 209.546875 231.765625 Z M 209.546875 244.199219 C 207.660156 244.195312 206.132812 242.667969 206.128906 240.785156 C 206.132812 238.902344 207.660156 237.375 209.546875 237.371094 C 211.429688 237.375 212.960938 238.902344 212.960938 240.785156 C 212.960938 242.667969 211.429688 244.195312 209.546875 244.199219 Z M 106.441406 233.765625 C 101.457031 233.765625 97.414062 237.796875 97.410156 242.78125 C 97.414062 247.769531 101.457031 251.800781 106.441406 251.800781 C 111.425781 251.796875 115.472656 247.769531 115.476562 242.78125 C 115.472656 237.796875 111.425781 233.765625 106.441406 233.765625 Z M 106.441406 246.195312 C 104.5625 246.191406 103.027344 244.664062 103.023438 242.785156 C 103.027344 240.902344 104.5625 239.375 106.441406 239.371094 C 108.328125 239.375 109.859375 240.902344 109.863281 242.785156 C 109.859375 244.664062 108.328125 246.191406 106.441406 246.195312 Z M 148.507812 199.792969 C 148.507812 194.808594 144.460938 190.769531 139.472656 190.769531 C 134.488281 190.773438 130.445312 194.808594 130.445312 199.792969 C 130.445312 204.78125 134.492188 208.8125 139.472656 208.8125 C 144.460938 208.8125 148.507812 204.78125 148.507812 199.792969 Z M 136.058594 199.792969 C 136.058594 197.90625 137.59375 196.378906 139.472656 196.375 C 141.359375 196.378906 142.894531 197.90625 142.894531 199.792969 C 142.890625 201.675781 141.363281 203.203125 139.472656 203.207031 C 137.59375 203.203125 136.058594 201.675781 136.058594 199.792969 Z M 136.058594 199.792969 " fill-opacity="1" fill-rule="nonzero"/></g></svg>
