<svg xmlns="http://www.w3.org/2000/svg" xmlns:xlink="http://www.w3.org/1999/xlink" width="30" zoomAndPan="magnify" viewBox="0 0 375 374.999991" height="30" preserveAspectRatio="xMidYMid meet" version="1.0"><defs><clipPath id="e808d64bc8"><path d="M 75.703125 0 L 299.203125 0 L 299.203125 375 L 75.703125 375 Z M 75.703125 0 " clip-rule="nonzero"/></clipPath></defs><g clip-path="url(#e808d64bc8)"><path fill="#ffffff" d="M 299.1875 78.210938 C 299.1875 90.101562 296.757812 101.175781 291.894531 111.433594 C 282.984375 130.613281 267.324219 143.980469 244.914062 151.542969 C 237.082031 154.246094 230.332031 155.59375 224.664062 155.59375 C 207.921875 155.59375 193.484375 152.488281 181.328125 146.277344 L 181.328125 142.230469 C 201.035156 146.558594 219.257812 144.390625 236.003906 135.742188 C 250.855469 128.179688 260.980469 115.753906 266.378906 98.46875 C 267.996094 93.070312 268.8125 87.941406 268.8125 83.074219 L 268.8125 74.164062 C 268.269531 55.253906 263.277344 40.199219 253.824219 28.988281 C 244.378906 17.789062 231.140625 12.175781 214.136719 12.175781 L 167.566406 12.175781 L 167.566406 48.046875 C 170.59375 47.746094 173.71875 47.585938 176.949219 47.585938 C 187.746094 47.585938 199.488281 48.941406 212.179688 51.636719 L 228.378906 51.636719 L 229.1875 101.46875 L 225.136719 101.46875 C 224.867188 88.507812 220.207031 78.308594 211.167969 70.882812 C 202.117188 63.457031 190.78125 59.742188 177.152344 59.742188 C 173.824219 59.742188 170.628906 60.015625 167.570312 60.550781 C 158.089844 62.21875 149.875 66.472656 142.925781 73.316406 C 142.351562 73.890625 141.785156 74.464844 141.242188 75.0625 C 133.1875 83.847656 129.15625 94.875 129.15625 108.160156 C 129.15625 119.839844 133.1875 129.910156 141.242188 138.386719 C 142.972656 140.199219 144.875 141.949219 146.972656 143.613281 L 167.566406 159.867188 L 221.890625 202.765625 C 251.589844 226.265625 266.441406 254.632812 266.441406 287.84375 C 266.441406 312.699219 256.585938 334.035156 236.878906 351.863281 C 219.867188 367.257812 197.195312 374.957031 168.847656 374.957031 C 151.566406 374.957031 136.175781 371.707031 122.675781 365.234375 C 97.296875 353.328125 82.039062 333.078125 76.910156 304.449219 C 76.101562 300.121094 75.703125 294.652344 75.703125 288.035156 C 75.703125 281.417969 77.589844 272.367188 81.367188 260.886719 C 85.140625 249.402344 92.433594 237.863281 103.234375 226.242188 L 106.878906 229.078125 C 92.84375 247.449219 85.820312 267.296875 85.820312 288.636719 C 85.820312 314.027344 96.484375 333.75 117.8125 347.792969 C 130.234375 356.164062 144.339844 360.347656 160.128906 360.347656 C 175.921875 360.347656 189.628906 357.242188 201.242188 351.03125 C 223.101562 339.6875 235.386719 320.644531 238.089844 293.902344 C 238.359375 292.015625 238.496094 290.125 238.496094 288.238281 C 238.496094 278.246094 235.722656 267.441406 230.191406 255.824219 C 224.65625 244.207031 215.675781 233.546875 203.265625 223.820312 L 167.558594 195.636719 L 141.234375 174.863281 L 130.371094 166.28125 C 114.429688 153.863281 106.472656 137.789062 106.472656 118.074219 C 106.472656 98.355469 112.816406 81.679688 125.507812 68.035156 C 130.152344 63.042969 135.398438 58.964844 141.234375 55.796875 L 141.234375 27.5625 C 140.421875 20.808594 137.589844 15.203125 132.726562 10.746094 C 127.863281 6.289062 122.0625 4.0625 115.3125 4.0625 L 110.457031 4.0625 L 110.058594 0.0117188 L 215.761719 0.0117188 C 241.675781 0.0117188 262.0625 6.972656 276.914062 20.878906 C 291.757812 34.792969 299.1875 53.894531 299.1875 78.210938 Z M 141.242188 270.925781 C 140.972656 277.949219 138.335938 283.953125 133.34375 288.949219 C 128.347656 293.949219 122.335938 296.441406 115.320312 296.441406 L 110.058594 296.441406 L 110.058594 300.492188 L 198.75 300.492188 L 198.75 296.441406 L 193.484375 296.441406 C 186.464844 296.441406 180.453125 293.949219 175.460938 288.949219 C 170.464844 283.953125 167.828125 277.941406 167.570312 270.925781 L 167.570312 212.519531 L 141.25 191.746094 L 141.25 270.925781 Z M 141.242188 270.925781 " fill-opacity="1" fill-rule="nonzero"/></g></svg>
